<?xml version="1.0" encoding="UTF-8"?>
<svg version="1.1" xmlns="http://www.w3.org/2000/svg" width="1280" height="720">
<path d="M0 0 C422.4 0 844.8 0 1280 0 C1280 237.6 1280 475.2 1280 720 C857.6 720 435.2 720 0 720 C0 482.4 0 244.8 0 0 Z " fill="#FEFEFE" transform="translate(0,0)"/>
<path d="M0 0 C1.38638672 -0.00193359 1.38638672 -0.00193359 2.80078125 -0.00390625 C4.24517578 0.00189453 4.24517578 0.00189453 5.71875 0.0078125 C7.16314453 0.00201172 7.16314453 0.00201172 8.63671875 -0.00390625 C9.56097656 -0.00261719 10.48523438 -0.00132812 11.4375 0 C12.7049707 0.00169189 12.7049707 0.00169189 13.99804688 0.00341797 C16.21875 0.1328125 16.21875 0.1328125 19.21875 1.1328125 C19.71375 2.1228125 19.71375 2.1228125 20.21875 3.1328125 C21.37375 3.5659375 22.52875 3.9990625 23.71875 4.4453125 C24.87375 5.0021875 26.02875 5.5590625 27.21875 6.1328125 C28.15625 8.8203125 28.15625 8.8203125 28.21875 11.1328125 C29.20875 11.4628125 30.19875 11.7928125 31.21875 12.1328125 C31.21875 13.4528125 31.21875 14.7728125 31.21875 16.1328125 C33.19875 16.6278125 33.19875 16.6278125 35.21875 17.1328125 C36.20875 22.0828125 36.20875 22.0828125 37.21875 27.1328125 C37.87875 27.1328125 38.53875 27.1328125 39.21875 27.1328125 C39.21875 28.1228125 39.21875 29.1128125 39.21875 30.1328125 C40.20875 30.4628125 41.19875 30.7928125 42.21875 31.1328125 C42.21875 31.7928125 42.21875 32.4528125 42.21875 33.1328125 C51.12875 33.1328125 60.03875 33.1328125 69.21875 33.1328125 C69.54875 32.1428125 69.87875 31.1528125 70.21875 30.1328125 C70.87875 30.1328125 71.53875 30.1328125 72.21875 30.1328125 C72.21875 28.4828125 72.21875 26.8328125 72.21875 25.1328125 C73.20875 24.6378125 73.20875 24.6378125 74.21875 24.1328125 C75.26683041 22.15758404 76.2707911 20.15799741 77.21875 18.1328125 C77.87875 18.1328125 78.53875 18.1328125 79.21875 18.1328125 C79.87875 15.8228125 80.53875 13.5128125 81.21875 11.1328125 C81.87875 11.1328125 82.53875 11.1328125 83.21875 11.1328125 C83.30125 10.5553125 83.38375 9.9778125 83.46875 9.3828125 C84.49621865 6.30040655 85.60134716 5.07908641 88.21875 3.1328125 C90.92095368 2.50763727 93.43367576 2.31848412 96.21875 2.1328125 C96.21875 1.4728125 96.21875 0.8128125 96.21875 0.1328125 C102.81875 0.1328125 109.41875 0.1328125 116.21875 0.1328125 C116.21875 0.7928125 116.21875 1.4528125 116.21875 2.1328125 C117.064375 2.2359375 117.91 2.3390625 118.78125 2.4453125 C122.6832717 3.22571684 125.75049242 4.16066604 129.21875 6.1328125 C130.15625 9.3203125 130.15625 9.3203125 130.21875 12.1328125 C130.87875 12.1328125 131.53875 12.1328125 132.21875 12.1328125 C132.54875 13.7828125 132.87875 15.4328125 133.21875 17.1328125 C133.87875 17.1328125 134.53875 17.1328125 135.21875 17.1328125 C135.35411629 19.55135696 135.45295279 21.96231033 135.53125 24.3828125 C135.5940918 25.40568359 135.5940918 25.40568359 135.65820312 26.44921875 C135.74776352 30.13910698 135.51859159 31.79191152 133.05078125 34.59765625 C129.90241333 36.30428879 128.14227459 36.58705797 124.59375 36.4453125 C123.18222656 36.40857422 123.18222656 36.40857422 121.7421875 36.37109375 C119.21875 36.1328125 119.21875 36.1328125 116.21875 35.1328125 C116.21875 34.4728125 116.21875 33.8128125 116.21875 33.1328125 C115.22875 32.8028125 114.23875 32.4728125 113.21875 32.1328125 C113.21875 28.8328125 113.21875 25.5328125 113.21875 22.1328125 C112.55875 22.1328125 111.89875 22.1328125 111.21875 22.1328125 C111.21875 21.1428125 111.21875 20.1528125 111.21875 19.1328125 C105.77375 19.6278125 105.77375 19.6278125 100.21875 20.1328125 C99.88875 21.7828125 99.55875 23.4328125 99.21875 25.1328125 C98.55875 25.1328125 97.89875 25.1328125 97.21875 25.1328125 C97.21875 25.7928125 97.21875 26.4528125 97.21875 27.1328125 C96.55875 27.1328125 95.89875 27.1328125 95.21875 27.1328125 C94.88875 29.1128125 94.55875 31.0928125 94.21875 33.1328125 C93.55875 33.1328125 92.89875 33.1328125 92.21875 33.1328125 C92.0640625 35.02 92.0640625 35.02 91.90625 36.9453125 C91.57016192 39.73780907 91.41849124 40.87714371 89.65625 43.1328125 C89.181875 43.4628125 88.7075 43.7928125 88.21875 44.1328125 C89.86875 44.4628125 91.51875 44.7928125 93.21875 45.1328125 C93.54875 46.7828125 93.87875 48.4328125 94.21875 50.1328125 C95.53875 50.4628125 96.85875 50.7928125 98.21875 51.1328125 C98.21875 53.1128125 98.21875 55.0928125 98.21875 57.1328125 C98.87875 57.1328125 99.53875 57.1328125 100.21875 57.1328125 C100.21875 58.1228125 100.21875 59.1128125 100.21875 60.1328125 C101.20875 60.4628125 102.19875 60.7928125 103.21875 61.1328125 C103.21875 63.4428125 103.21875 65.7528125 103.21875 68.1328125 C103.87875 68.1328125 104.53875 68.1328125 105.21875 68.1328125 C105.21875 71.1028125 105.21875 74.0728125 105.21875 77.1328125 C106.600625 77.2565625 107.9825 77.3803125 109.40625 77.5078125 C112.9806908 77.89682893 115.95233896 78.55229103 119.21875 80.1328125 C119.21875 80.7928125 119.21875 81.4528125 119.21875 82.1328125 C121.85875 82.4628125 124.49875 82.7928125 127.21875 83.1328125 C127.21875 83.7928125 127.21875 84.4528125 127.21875 85.1328125 C129.85875 85.4628125 132.49875 85.7928125 135.21875 86.1328125 C135.21875 86.7928125 135.21875 87.4528125 135.21875 88.1328125 C138.84875 88.1328125 142.47875 88.1328125 146.21875 88.1328125 C146.21875 88.7928125 146.21875 89.4528125 146.21875 90.1328125 C148.85875 90.4628125 151.49875 90.7928125 154.21875 91.1328125 C154.21875 91.7928125 154.21875 92.4528125 154.21875 93.1328125 C155.1675 93.0915625 156.11625 93.0503125 157.09375 93.0078125 C160.21875 93.1328125 160.21875 93.1328125 162.21875 95.1328125 C164.14272272 95.77486888 164.14272272 95.77486888 166.3515625 96.203125 C167.15722656 96.37714844 167.96289062 96.55117188 168.79296875 96.73046875 C169.63472656 96.90449219 170.47648437 97.07851563 171.34375 97.2578125 C172.19324219 97.43957031 173.04273438 97.62132812 173.91796875 97.80859375 C176.01681785 98.25666266 178.11761134 98.69560587 180.21875 99.1328125 C180.21875 99.7928125 180.21875 100.4528125 180.21875 101.1328125 C184.17875 101.6278125 184.17875 101.6278125 188.21875 102.1328125 C188.21875 102.7928125 188.21875 103.4528125 188.21875 104.1328125 C189.20875 104.1328125 190.19875 104.1328125 191.21875 104.1328125 C191.21875 104.7928125 191.21875 105.4528125 191.21875 106.1328125 C193.20442708 106.328125 195.19010417 106.5234375 197.17578125 106.71875 C199.21875 107.1328125 199.21875 107.1328125 202.21875 109.1328125 C202.21875 110.4528125 202.21875 111.7728125 202.21875 113.1328125 C202.87875 113.1328125 203.53875 113.1328125 204.21875 113.1328125 C204.21875 114.1228125 204.21875 115.1128125 204.21875 116.1328125 C203.55875 116.1328125 202.89875 116.1328125 202.21875 116.1328125 C202.21875 117.7828125 202.21875 119.4328125 202.21875 121.1328125 C201.22875 121.1328125 200.23875 121.1328125 199.21875 121.1328125 C199.21875 121.7928125 199.21875 122.4528125 199.21875 123.1328125 C198.22875 123.1328125 197.23875 123.1328125 196.21875 123.1328125 C196.21875 124.1228125 196.21875 125.1128125 196.21875 126.1328125 C194.23875 126.4628125 192.25875 126.7928125 190.21875 127.1328125 C190.21875 127.7928125 190.21875 128.4528125 190.21875 129.1328125 C188.84375 130.7578125 188.84375 130.7578125 187.21875 132.1328125 C186.55875 132.1328125 185.89875 132.1328125 185.21875 132.1328125 C185.21875 132.7928125 185.21875 133.4528125 185.21875 134.1328125 C183.56875 134.4628125 181.91875 134.7928125 180.21875 135.1328125 C179.88875 136.4528125 179.55875 137.7728125 179.21875 139.1328125 C177.23875 139.4628125 175.25875 139.7928125 173.21875 140.1328125 C173.156875 140.7515625 173.095 141.3703125 173.03125 142.0078125 C172.21875 144.1328125 172.21875 144.1328125 169.90625 145.3828125 C167.21875 146.1328125 167.21875 146.1328125 163.21875 146.1328125 C163.21875 146.7928125 163.21875 147.4528125 163.21875 148.1328125 C161.23875 148.4628125 159.25875 148.7928125 157.21875 149.1328125 C156.88875 150.4528125 156.55875 151.7728125 156.21875 153.1328125 C152.25875 153.4628125 148.29875 153.7928125 144.21875 154.1328125 C144.21875 154.7928125 144.21875 155.4528125 144.21875 156.1328125 C138.93875 156.1328125 133.65875 156.1328125 128.21875 156.1328125 C127.55875 160.7528125 126.89875 165.3728125 126.21875 170.1328125 C125.55875 170.1328125 124.89875 170.1328125 124.21875 170.1328125 C124.21875 171.7828125 124.21875 173.4328125 124.21875 175.1328125 C123.55875 175.1328125 122.89875 175.1328125 122.21875 175.1328125 C122.21875 176.4528125 122.21875 177.7728125 122.21875 179.1328125 C121.55875 179.1328125 120.89875 179.1328125 120.21875 179.1328125 C119.55875 182.4328125 118.89875 185.7328125 118.21875 189.1328125 C117.55875 189.1328125 116.89875 189.1328125 116.21875 189.1328125 C116.21875 190.1228125 116.21875 191.1128125 116.21875 192.1328125 C115.55875 192.1328125 114.89875 192.1328125 114.21875 192.1328125 C114.095 192.6896875 113.97125 193.2465625 113.84375 193.8203125 C113.15331646 196.3749166 112.32393316 198.72741385 111.21875 201.1328125 C110.55875 201.4628125 109.89875 201.7928125 109.21875 202.1328125 C108.93 203.1228125 108.64125 204.1128125 108.34375 205.1328125 C107.9725 206.1228125 107.60125 207.1128125 107.21875 208.1328125 C105.09375 209.0078125 105.09375 209.0078125 103.21875 209.1328125 C103.0640625 209.9371875 103.0640625 209.9371875 102.90625 210.7578125 C102.01709457 213.82944036 100.86525517 216.38863722 99.21875 219.1328125 C97.15625 219.7578125 97.15625 219.7578125 95.21875 220.1328125 C94.5350455 221.45748996 93.86910814 222.79144883 93.21875 224.1328125 C92.538125 224.4421875 91.8575 224.7515625 91.15625 225.0703125 C90.516875 225.4209375 89.8775 225.7715625 89.21875 226.1328125 C89.05375 226.9578125 88.88875 227.7828125 88.71875 228.6328125 C88.55375 229.4578125 88.38875 230.2828125 88.21875 231.1328125 C86.21875 232.2578125 86.21875 232.2578125 84.21875 233.1328125 C83.88875 234.1228125 83.55875 235.1128125 83.21875 236.1328125 C82.22875 236.1328125 81.23875 236.1328125 80.21875 236.1328125 C80.21875 237.1228125 80.21875 238.1128125 80.21875 239.1328125 C78.56875 239.4628125 76.91875 239.7928125 75.21875 240.1328125 C75.21875 240.7928125 75.21875 241.4528125 75.21875 242.1328125 C74.22875 242.1328125 73.23875 242.1328125 72.21875 242.1328125 C71.88875 243.1228125 71.55875 244.1128125 71.21875 245.1328125 C70.55875 245.1328125 69.89875 245.1328125 69.21875 245.1328125 C69.21875 245.7928125 69.21875 246.4528125 69.21875 247.1328125 C65.8114028 250.66280287 64.21472952 251.96366513 59.30859375 252.796875 C57.9244801 252.80999456 56.53988312 252.79656973 55.15625 252.7578125 C54.46208984 252.77714844 53.76792969 252.79648437 53.05273438 252.81640625 C49.07418161 252.77862322 47.34753819 252.23658186 44.22265625 249.71875 C42.21875 247.1328125 42.21875 247.1328125 42.21875 245.1328125 C41.22875 245.1328125 40.23875 245.1328125 39.21875 245.1328125 C39.21875 244.1428125 39.21875 243.1528125 39.21875 242.1328125 C38.22875 242.1328125 37.23875 242.1328125 36.21875 242.1328125 C36.21875 241.4728125 36.21875 240.8128125 36.21875 240.1328125 C34.56875 239.8028125 32.91875 239.4728125 31.21875 239.1328125 C31.21875 238.1428125 31.21875 237.1528125 31.21875 236.1328125 C30.22875 236.1328125 29.23875 236.1328125 28.21875 236.1328125 C28.21875 235.1428125 28.21875 234.1528125 28.21875 233.1328125 C27.0740625 232.7925 27.0740625 232.7925 25.90625 232.4453125 C22.60549921 230.83331793 21.95725065 229.30746586 20.21875 226.1328125 C19.496875 225.4109375 18.775 224.6890625 18.03125 223.9453125 C17.433125 223.3471875 16.835 222.7490625 16.21875 222.1328125 C16.21875 221.4728125 16.21875 220.8128125 16.21875 220.1328125 C14.23875 219.1428125 14.23875 219.1428125 12.21875 218.1328125 C12.21875 217.4728125 12.21875 216.8128125 12.21875 216.1328125 C11.55875 216.1328125 10.89875 216.1328125 10.21875 216.1328125 C8.7581215 213.48542334 8.21875 212.23832916 8.21875 209.1328125 C7.2596875 208.7615625 7.2596875 208.7615625 6.28125 208.3828125 C4.21875 207.1328125 4.21875 207.1328125 3.65625 205.0703125 C3.4396875 204.11125 3.4396875 204.11125 3.21875 203.1328125 C2.22875 202.8028125 1.23875 202.4728125 0.21875 202.1328125 C-0.48506157 200.14557982 -1.1524311 198.14503297 -1.78125 196.1328125 C-2.44125 195.8028125 -3.10125 195.4728125 -3.78125 195.1328125 C-4.40625 192.0703125 -4.40625 192.0703125 -4.78125 189.1328125 C-5.44125 189.1328125 -6.10125 189.1328125 -6.78125 189.1328125 C-7.27625 185.6678125 -7.27625 185.6678125 -7.78125 182.1328125 C-8.44125 182.1328125 -9.10125 182.1328125 -9.78125 182.1328125 C-10.27625 178.6678125 -10.27625 178.6678125 -10.78125 175.1328125 C-11.44125 175.1328125 -12.10125 175.1328125 -12.78125 175.1328125 C-13.11125 171.8328125 -13.44125 168.5328125 -13.78125 165.1328125 C-14.44125 165.1328125 -15.10125 165.1328125 -15.78125 165.1328125 C-16.44125 162.4928125 -17.10125 159.8528125 -17.78125 157.1328125 C-18.54308594 157.08382812 -19.30492187 157.03484375 -20.08984375 156.984375 C-26.51095616 156.51942554 -32.53566373 155.69420907 -38.78125 154.1328125 C-38.78125 153.4728125 -38.78125 152.8128125 -38.78125 152.1328125 C-41.09125 151.8028125 -43.40125 151.4728125 -45.78125 151.1328125 C-45.78125 150.4728125 -45.78125 149.8128125 -45.78125 149.1328125 C-47.76125 148.8028125 -49.74125 148.4728125 -51.78125 148.1328125 C-51.78125 147.4728125 -51.78125 146.8128125 -51.78125 146.1328125 C-53.76125 145.8028125 -55.74125 145.4728125 -57.78125 145.1328125 C-57.78125 144.4728125 -57.78125 143.8128125 -57.78125 143.1328125 C-58.9878125 142.9471875 -58.9878125 142.9471875 -60.21875 142.7578125 C-61.064375 142.5515625 -61.91 142.3453125 -62.78125 142.1328125 C-63.27625 141.1428125 -63.27625 141.1428125 -63.78125 140.1328125 C-64.709375 139.9471875 -64.709375 139.9471875 -65.65625 139.7578125 C-68.4648458 138.93175491 -69.10720417 137.46191974 -70.78125 135.1328125 C-71.77125 134.8028125 -72.76125 134.4728125 -73.78125 134.1328125 C-73.884375 133.4934375 -73.9875 132.8540625 -74.09375 132.1953125 C-74.320625 131.5146875 -74.5475 130.8340625 -74.78125 130.1328125 C-77.6184015 128.93685713 -77.6184015 128.93685713 -80.78125 128.1328125 C-82.12846283 127.49465906 -83.46872118 126.83955879 -84.78125 126.1328125 C-84.78125 125.1428125 -84.78125 124.1528125 -84.78125 123.1328125 C-85.77125 123.1328125 -86.76125 123.1328125 -87.78125 123.1328125 C-87.78125 122.4728125 -87.78125 121.8128125 -87.78125 121.1328125 C-88.77125 120.8028125 -89.76125 120.4728125 -90.78125 120.1328125 C-90.78125 116.1728125 -90.78125 112.2128125 -90.78125 108.1328125 C-87.81125 107.6378125 -87.81125 107.6378125 -84.78125 107.1328125 C-84.78125 106.4728125 -84.78125 105.8128125 -84.78125 105.1328125 C-82.14125 104.8028125 -79.50125 104.4728125 -76.78125 104.1328125 C-76.78125 103.4728125 -76.78125 102.8128125 -76.78125 102.1328125 C-74.69923472 101.62735214 -72.61557933 101.12864415 -70.53125 100.6328125 C-69.37109375 100.354375 -68.2109375 100.0759375 -67.015625 99.7890625 C-63.78125 99.1328125 -63.78125 99.1328125 -59.78125 99.1328125 C-59.78125 98.4728125 -59.78125 97.8128125 -59.78125 97.1328125 C-57.14125 96.8028125 -54.50125 96.4728125 -51.78125 96.1328125 C-51.78125 95.4728125 -51.78125 94.8128125 -51.78125 94.1328125 C-50.1989494 93.79461084 -48.61535625 93.46245311 -47.03125 93.1328125 C-46.14953125 92.9471875 -45.2678125 92.7615625 -44.359375 92.5703125 C-41.78125 92.1328125 -41.78125 92.1328125 -37.78125 92.1328125 C-37.78125 91.4728125 -37.78125 90.8128125 -37.78125 90.1328125 C-35.14125 90.1328125 -32.50125 90.1328125 -29.78125 90.1328125 C-29.78125 89.4728125 -29.78125 88.8128125 -29.78125 88.1328125 C-28.646875 87.8234375 -27.5125 87.5140625 -26.34375 87.1953125 C-22.99349901 86.50356719 -22.99349901 86.50356719 -21.78125 85.1328125 C-19.78166636 85.09200467 -17.78079746 85.09026894 -15.78125 85.1328125 C-15.78125 84.4728125 -15.78125 83.8128125 -15.78125 83.1328125 C-13.14125 82.8028125 -10.50125 82.4728125 -7.78125 82.1328125 C-7.78125 81.4728125 -7.78125 80.8128125 -7.78125 80.1328125 C-6.54375 79.8028125 -5.30625 79.4728125 -4.03125 79.1328125 C-3.33515625 78.9471875 -2.6390625 78.7615625 -1.921875 78.5703125 C0.21875 78.1328125 0.21875 78.1328125 4.21875 78.1328125 C4.87875 74.8328125 5.53875 71.5328125 6.21875 68.1328125 C6.87875 68.1328125 7.53875 68.1328125 8.21875 68.1328125 C8.21875 65.8228125 8.21875 63.5128125 8.21875 61.1328125 C9.20875 60.8028125 10.19875 60.4728125 11.21875 60.1328125 C11.54875 57.4928125 11.87875 54.8528125 12.21875 52.1328125 C13.023125 51.8853125 13.8275 51.6378125 14.65625 51.3828125 C15.501875 50.9703125 16.3475 50.5578125 17.21875 50.1328125 C17.96151031 48.16201093 17.96151031 48.16201093 18.21875 46.1328125 C19.20875 45.1428125 19.20875 45.1428125 20.21875 44.1328125 C21.20875 44.1328125 22.19875 44.1328125 23.21875 44.1328125 C23.21875 43.1428125 23.21875 42.1528125 23.21875 41.1328125 C22.22875 41.1328125 21.23875 41.1328125 20.21875 41.1328125 C20.21875 39.4828125 20.21875 37.8328125 20.21875 36.1328125 C18.73375 35.6378125 18.73375 35.6378125 17.21875 35.1328125 C17.13625 33.8540625 17.05375 32.5753125 16.96875 31.2578125 C16.75731747 29.06642341 16.75731747 29.06642341 16.21875 27.1328125 C14.26853917 25.90753302 14.26853917 25.90753302 12.21875 25.1328125 C11.88875 23.4828125 11.55875 21.8328125 11.21875 20.1328125 C7.58875 19.8028125 3.95875 19.4728125 0.21875 19.1328125 C0.21875 20.1228125 0.21875 21.1128125 0.21875 22.1328125 C-0.44125 22.1328125 -1.10125 22.1328125 -1.78125 22.1328125 C-1.75804687 22.81988281 -1.73484375 23.50695312 -1.7109375 24.21484375 C-1.69289063 25.11589844 -1.67484375 26.01695312 -1.65625 26.9453125 C-1.63304687 27.83863281 -1.60984375 28.73195312 -1.5859375 29.65234375 C-1.78125 32.1328125 -1.78125 32.1328125 -3.78125 35.1328125 C-6.84839251 36.28047414 -9.96523665 36.35957498 -13.21875 36.4453125 C-14.60900391 36.50138672 -14.60900391 36.50138672 -16.02734375 36.55859375 C-19.75551642 35.98218124 -21.28740542 34.96305698 -23.78125 32.1328125 C-24.15523847 29.32041924 -24.26418015 27.15689095 -24.09375 24.3828125 C-24.07119141 23.68542969 -24.04863281 22.98804688 -24.02539062 22.26953125 C-23.96672048 20.55636315 -23.87704256 18.84430627 -23.78125 17.1328125 C-23.12125 17.1328125 -22.46125 17.1328125 -21.78125 17.1328125 C-20.65781796 14.40447755 -19.6993127 11.81136615 -18.96875 8.9453125 C-17.78125 6.1328125 -17.78125 6.1328125 -15.46875 4.9453125 C-14.581875 4.6771875 -13.695 4.4090625 -12.78125 4.1328125 C-11.11108484 3.13866657 -9.44404327 2.13924 -7.78125 1.1328125 C-4.88180169 0.16632973 -3.0154352 0.00402518 0 0 Z " fill="#FDEA08" transform="translate(192.78125,214.8671875)"/>
<path d="M0 0 C12.16875 -0.061875 24.3375 -0.12375 36.875 -0.1875 C40.6788623 -0.21481201 44.48272461 -0.24212402 48.40185547 -0.27026367 C53.14477539 -0.28381348 53.14477539 -0.28381348 55.38406372 -0.28633118 C56.90663302 -0.29085675 58.42919348 -0.30123243 59.95169067 -0.31672668 C77.65649935 -0.48746954 99.85522736 -0.02827791 113.22265625 12.9765625 C118.9208284 19.46371233 119.37689826 26.38982991 119.265625 34.6796875 C118.66707544 42.16155694 115.90040412 46.47264412 110.375 51.4375 C108.92235447 52.63195106 107.46495717 53.8206812 106 55 C105.01 55.99 105.01 55.99 104 57 C104.9075 57.556875 105.815 58.11375 106.75 58.6875 C112.44703706 62.74116098 115.22726719 67.15653813 116.59765625 73.97265625 C116.75105469 74.99230469 116.90445313 76.01195312 117.0625 77.0625 C117.57981895 80.45286304 118.16645133 83.6658053 119 87 C107.45 87 95.9 87 84 87 C80 77 80 77 78.5625 72.625 C76.54617275 67.94712079 74.28739996 66.10665249 69.77661133 63.92431641 C66.41050096 62.80375948 63.49510206 62.67647069 59.94921875 62.5859375 C59.29041214 62.56657135 58.63160553 62.5472052 57.95283508 62.5272522 C55.86451857 62.46784059 53.77614576 62.42122709 51.6875 62.375 C50.26495095 62.33678468 48.84242416 62.29773091 47.41992188 62.2578125 C43.94673552 62.16060379 40.47376403 62.0807358 37 62 C37 70.25 37 78.5 37 87 C24.79 87 12.58 87 0 87 C0 58.29 0 29.58 0 0 Z " fill="#FEE905" transform="translate(821,283)"/>
<path d="M0 0 C7.074375 -0.226875 14.14875 -0.45375 21.4375 -0.6875 C23.65267334 -0.78764404 25.86784668 -0.88778809 28.15014648 -0.9909668 C42.06207389 -1.36029491 42.06207389 -1.36029491 47.20751953 2.25146484 C49.49304443 5.05383385 51.25044064 7.84163456 53 11 C54.02572173 12.28035198 55.08445558 13.53562804 56.1875 14.75 C56.65349609 15.28947266 57.11949219 15.82894531 57.59960938 16.38476562 C58.06173828 16.91779297 58.52386719 17.45082031 59 18 C62.55575301 22.1235919 66.06796285 26.27212815 69.5 30.5 C73.49932147 35.42617151 77.60917117 40.24927593 81.75195312 45.0546875 C82.23083984 45.61027344 82.70972656 46.16585937 83.203125 46.73828125 C83.62239258 47.22337158 84.04166016 47.70846191 84.47363281 48.20825195 C86.67066774 50.78727296 88.83107719 53.39729263 91 56 C91.33 37.52 91.66 19.04 92 0 C104.21 0 116.42 0 129 0 C129 28.71 129 57.42 129 87 C118.5121875 87.4640625 118.5121875 87.4640625 107.8125 87.9375 C105.63374268 88.07406006 103.45498535 88.21062012 101.21020508 88.35131836 C86.49315354 88.88390614 86.49315354 88.88390614 80.8359375 83.79199219 C77.95612249 80.70126851 75.52389248 77.38328432 73.2244873 73.84503174 C71.45846393 71.18402482 69.43926943 68.81033648 67.375 66.375 C66.67117188 65.50617188 65.96734375 64.63734375 65.2421875 63.7421875 C62.69746289 60.62999817 60.10380529 57.56274616 57.5 54.5 C53.25784977 49.50771345 49.07890463 44.46892473 44.94921875 39.3828125 C43.30631127 37.37444865 41.63177717 35.40229201 39.9375 33.4375 C38 31 38 31 38 29 C37.34 29 36.68 29 36 29 C36 48.14 36 67.28 36 87 C24.12 87 12.24 87 0 87 C0 58.29 0 29.58 0 0 Z " fill="#FEE904" transform="translate(551,283)"/>
<path d="M0 0 C1.17057953 -0.00055893 1.17057953 -0.00055893 2.36480713 -0.00112915 C16.98242595 0.1316894 16.98242595 0.1316894 21.35546875 4.07421875 C23.67387613 7.12486913 25.05147725 10.53949477 26.38085938 14.11279297 C28.03886235 18.13875092 30.54407109 21.63060276 32.9375 25.25 C33.95962189 26.8673381 34.9777227 28.48722308 35.9921875 30.109375 C39.65218156 35.92555891 43.35568675 41.71357962 47.0625 47.5 C47.72660889 48.53769531 48.39071777 49.57539063 49.07495117 50.64453125 C52.28125518 55.65234109 55.49229065 60.65700858 58.71548462 65.65396118 C60.20389112 67.96221649 61.68989651 70.27201251 63.17565918 72.58197021 C64.23093919 74.22040604 65.28975436 75.85656322 66.34863281 77.49267578 C67.30334473 78.97743408 67.30334473 78.97743408 68.27734375 80.4921875 C69.12220337 81.80098877 69.12220337 81.80098877 69.98413086 83.13623047 C71.3125 85.375 71.3125 85.375 72.3125 88.375 C67.17182045 88.67296612 62.03620673 88.88990358 56.88891602 89.03417969 C55.14128078 89.09432589 53.39424467 89.17608028 51.64868164 89.28027344 C39.9753471 89.95930402 39.9753471 89.95930402 35.3125 88.375 C31.65315441 84.83735059 29.81042906 81.2106277 28.3125 76.375 C28.3125 75.715 28.3125 75.055 28.3125 74.375 C9.8325 74.375 -8.6475 74.375 -27.6875 74.375 C-28.3475 76.025 -29.0075 77.675 -29.6875 79.375 C-31.3375 82.345 -32.9875 85.315 -34.6875 88.375 C-46.8975 88.375 -59.1075 88.375 -71.6875 88.375 C-70.14947267 84.52993168 -68.75984479 81.70362969 -66.5546875 78.296875 C-65.92175781 77.31396484 -65.28882813 76.33105469 -64.63671875 75.31835938 C-63.95222656 74.26455078 -63.26773437 73.21074219 -62.5625 72.125 C-61.47408294 70.43726468 -60.38567219 68.74952524 -59.29766846 67.06152344 C-58.17075416 65.3142741 -57.04204346 63.56819531 -55.91308594 61.82226562 C-52.48588092 56.5184791 -49.08839367 51.19567809 -45.6875 45.875 C-44.36856687 43.81505468 -43.04955598 41.75515914 -41.73046875 39.6953125 C-39.28502768 35.87479722 -36.8431303 32.05206607 -34.40579224 28.22637939 C-33.31083346 26.50796332 -32.21510345 24.79004149 -31.11914062 23.07226562 C-29.74520953 20.91829622 -28.37272363 18.76340403 -27.00195312 16.60742188 C-25.77789437 14.68968763 -24.53719609 12.78243314 -23.27709961 10.88818359 C-21.67241353 8.48754601 -21.67241353 8.48754601 -20.70922852 6.16259766 C-17.01903645 -1.37952722 -7.28194606 -0.04720428 0 0 Z " fill="#FEE905" transform="translate(467.6875,281.625)"/>
<path d="M0 0 C1.14192307 -0.01318771 1.14192307 -0.01318771 2.30691528 -0.02664185 C14.39689386 -0.01088594 14.39689386 -0.01088594 18.9934082 3.87963867 C20.82761227 6.45583058 22.2272608 9.04072315 23.625 11.875 C24.66787359 13.52345502 25.72913451 15.16042334 26.80859375 16.78515625 C27.89541758 18.50122014 28.9799626 20.21872889 30.0625 21.9375 C31.29263397 23.88042033 32.52311629 25.82312015 33.75390625 27.765625 C34.38828613 28.76787109 35.02266602 29.77011719 35.67626953 30.80273438 C38.93538672 35.94088655 42.21814696 41.06385221 45.5 46.1875 C46.15685791 47.21464111 46.81371582 48.24178223 47.49047852 49.30004883 C50.64806961 54.23611061 53.8113894 59.16826824 56.99313354 64.08879089 C58.11151876 65.81898761 59.22814777 67.55030476 60.34423828 69.28198242 C61.75055139 71.46280297 63.16022821 73.64145918 64.57373047 75.81762695 C65.20682129 76.80077881 65.83991211 77.78393066 66.4921875 78.796875 C67.05019043 79.65893555 67.60819336 80.52099609 68.18310547 81.40917969 C69.625 83.875 69.625 83.875 71.625 88.875 C59.415 88.875 47.205 88.875 34.625 88.875 C32.315 84.585 30.005 80.295 27.625 75.875 C9.145 75.545 -9.335 75.215 -28.375 74.875 C-29.76865022 79.01009631 -29.76865022 79.01009631 -31.00268555 83.19335938 C-32.10808978 85.91859964 -32.96574624 87.13360049 -35.375 88.875 C-41.66189086 89.90841809 -47.84143666 89.62504468 -54.1875 89.375 C-55.94718541 89.33485632 -57.706958 89.29835705 -59.46679688 89.265625 C-63.77168427 89.17761114 -68.07239049 89.03966894 -72.375 88.875 C-70.30152226 84.62491109 -68.2489063 80.44106323 -65.6328125 76.4921875 C-65.13120605 75.7288208 -64.62959961 74.9654541 -64.11279297 74.17895508 C-63.58057129 73.3773999 -63.04834961 72.57584473 -62.5 71.75 C-61.33755697 69.98111546 -60.17613512 68.21155951 -59.015625 66.44140625 C-58.41685547 65.52891113 -57.81808594 64.61641602 -57.20117188 63.67626953 C-54.17779711 59.03854199 -51.21434358 54.363095 -48.25 49.6875 C-41.67553595 39.33134437 -41.67553595 39.33134437 -38.50390625 34.41015625 C-38.05732666 33.71486816 -37.61074707 33.01958008 -37.15063477 32.30322266 C-36.26194474 30.93962421 -35.35748079 29.58617116 -34.43725586 28.24365234 C-31.83387009 24.40168187 -29.80092013 20.66275615 -28 16.37890625 C-21.71275491 2.69972347 -14.44900972 -0.03003874 0 0 Z " fill="#FEE905" transform="translate(1018.375,281.125)"/>
<path d="M0 0 C11.88 0 23.76 0 36 0 C36.05607422 5.14916016 36.05607422 5.14916016 36.11328125 10.40234375 C36.15956964 13.74851643 36.21077679 17.09458049 36.26245117 20.44067383 C36.29558546 22.75571014 36.32365272 25.070825 36.34643555 27.38598633 C36.3801931 30.72511078 36.43252031 34.06352281 36.48828125 37.40234375 C36.49467117 38.42770737 36.5010611 39.45307098 36.50764465 40.50950623 C36.6623083 48.16946825 37.49942141 54.92236482 42.4375 61 C46.81001876 64.41269757 50.90416848 64.20876168 56.375 64.3125 C57.66148437 64.34988281 58.94796875 64.38726562 60.2734375 64.42578125 C64.81509734 63.90687043 66.66122477 63.13656772 70 60 C73.9484612 52.89582401 74.59995672 46.07410363 74.609375 38.0859375 C74.62591125 36.99028473 74.64244751 35.89463196 74.65948486 34.76577759 C74.70766458 31.30212633 74.72926955 27.83891315 74.75 24.375 C74.7781847 22.01169706 74.80811558 19.64841427 74.83984375 17.28515625 C74.91666928 11.52324175 74.95747103 5.7626754 75 0 C86.88 0 98.76 0 111 0 C111.11534212 7.73817464 111.21472301 15.47331775 111.2746582 23.21166992 C111.29966552 25.83905188 111.33368253 28.46636525 111.37719727 31.09350586 C111.43845516 34.88933325 111.46634943 38.68423394 111.48828125 42.48046875 C111.51408768 43.63830368 111.5398941 44.79613861 111.56648254 45.98905945 C111.57025313 57.17318266 108.30846801 67.44009747 101.01171875 76.06640625 C86.89759052 89.632413 66.39161779 89.56024806 48.12890625 89.31640625 C34.49818442 88.88994434 20.83795458 85.745778 10.625 76.1875 C1.50121509 66.36612187 -0.47105783 54.20281069 -0.29296875 41.2109375 C-0.28872391 40.02650055 -0.28447906 38.8420636 -0.28010559 37.62173462 C-0.26343533 33.87258287 -0.22580413 30.12398679 -0.1875 26.375 C-0.17243814 23.81901823 -0.15875237 21.26302796 -0.14648438 18.70703125 C-0.11613367 12.47097259 -0.05738744 6.2361016 0 0 Z " fill="#FEE904" transform="translate(695,283)"/>
<path d="M0 0 C12.21 0 24.42 0 37 0 C37 21.45 37 42.9 37 65 C58.45 65 79.9 65 102 65 C102 72.26 102 79.52 102 87 C68.34 87 34.68 87 0 87 C0 58.29 0 29.58 0 0 Z " fill="#FEE907" transform="translate(1101,283)"/>
<path d="M0 0 C0 0.66 0 1.32 0 2 C0.99 2.33 1.98 2.66 3 3 C4.66978819 5.95424065 5.9271497 8.7814491 7 12 C8.72349255 12.6422386 8.72349255 12.6422386 11 13 C13.3347961 13.66152556 15.66836622 14.32741333 18 15 C18.495 16.98 18.495 16.98 19 19 C20.32 19 21.64 19 23 19 C22.67 20.32 22.34 21.64 22 23 C21.34 23 20.68 23 20 23 C20 23.66 20 24.32 20 25 C18.57421875 26.5078125 18.57421875 26.5078125 16.6875 28.125 C16.07261719 28.66382813 15.45773438 29.20265625 14.82421875 29.7578125 C13 31 13 31 10 31 C10 31.66 10 32.32 10 33 C8.02 33.33 6.04 33.66 4 34 C4 34.66 4 35.32 4 36 C2.02 36.33 0.04 36.66 -2 37 C-2 37.66 -2 38.32 -2 39 C-7.52673862 40.55698022 -12.42118239 41.29893215 -18.1484375 41.265625 C-18.8870401 41.26753845 -19.6256427 41.2694519 -20.3866272 41.27142334 C-21.93109482 41.27277306 -23.47557427 41.26916231 -25.02001953 41.26074219 C-27.38990306 41.24993202 -29.75904447 41.26072522 -32.12890625 41.2734375 C-33.63541834 41.27211749 -35.14192997 41.26955839 -36.6484375 41.265625 C-37.71087173 41.27169769 -37.71087173 41.27169769 -38.79476929 41.27789307 C-43.77001277 41.22998723 -43.77001277 41.22998723 -46 39 C-46.845625 38.835 -47.69125 38.67 -48.5625 38.5 C-49.366875 38.335 -50.17125 38.17 -51 38 C-51.33 37.34 -51.66 36.68 -52 36 C-54.02463255 35.34786708 -54.02463255 35.34786708 -56 35 C-56 34.34 -56 33.68 -56 33 C-57.98 32.67 -59.96 32.34 -62 32 C-62 31.34 -62 30.68 -62 30 C-62.99 30 -63.98 30 -65 30 C-65 29.01 -65 28.02 -65 27 C-65.99 27 -66.98 27 -68 27 C-68 26.34 -68 25.68 -68 25 C-69.32 24.67 -70.64 24.34 -72 24 C-72 23.01 -72 22.02 -72 21 C-67.32790951 19.56976822 -62.86896303 18.59619955 -58 18 C-57.67 17.01 -57.34 16.02 -57 15 C-55.18994141 14.29223633 -55.18994141 14.29223633 -52.8515625 13.83203125 C-51.59085938 13.57583008 -51.59085938 13.57583008 -50.3046875 13.31445312 C-49.42039063 13.14880859 -48.53609375 12.98316406 -47.625 12.8125 C-46.7484375 12.63525391 -45.871875 12.45800781 -44.96875 12.27539062 C-41.57716475 11.60381526 -38.46605511 11 -35 11 C-35 10.34 -35 9.68 -35 9 C-30.545 8.505 -30.545 8.505 -26 8 C-26 7.34 -26 6.68 -26 6 C-24.71802734 5.81824219 -24.71802734 5.81824219 -23.41015625 5.6328125 C-22.30542969 5.46523438 -21.20070312 5.29765625 -20.0625 5.125 C-18.96035156 4.96257812 -17.85820312 4.80015625 -16.72265625 4.6328125 C-15.82417969 4.42398437 -14.92570312 4.21515625 -14 4 C-13.67 3.34 -13.34 2.68 -13 2 C-8.54569773 0.42789332 -4.71334503 -0.22991927 0 0 Z " fill="#FDFDF5" transform="translate(206,311)"/>
<path d="M0 0 C4.18311348 -0.39216689 7.14412212 0.68395271 10.94921875 2.203125 C15.5005996 3.97166156 20.20340559 5.12789193 25 6 C25 6.66 25 7.32 25 8 C27.64 8.33 30.28 8.66 33 9 C33 9.66 33 10.32 33 11 C33.9178125 11.12117188 34.835625 11.24234375 35.78125 11.3671875 C42.30736024 12.25835802 48.65478526 13.22333987 55 15 C55 15.66 55 16.32 55 17 C55.99 17 56.98 17 58 17 C58 17.66 58 18.32 58 19 C61.63 19.33 65.26 19.66 69 20 C69.495 21.98 69.495 21.98 70 24 C68.515 24.495 68.515 24.495 67 25 C67 25.66 67 26.32 67 27 C66.01 27 65.02 27 64 27 C64 27.99 64 28.98 64 30 C62.02 30.33 60.04 30.66 58 31 C58 31.66 58 32.32 58 33 C56.865625 33.45375 55.73125 33.9075 54.5625 34.375 C50.95278308 35.57095806 50.95278308 35.57095806 50 38 C41.31624149 41.51485463 32.16937468 41.18632819 22.96484375 41.18530273 C20.74199792 41.18750794 18.51963452 41.20575998 16.296875 41.22460938 C14.88021002 41.2275405 13.4635427 41.22952717 12.046875 41.23046875 C10.12633301 41.23663208 10.12633301 41.23663208 8.16699219 41.24291992 C5 41 5 41 2 39 C0.96875 38.690625 -0.0625 38.38125 -1.125 38.0625 C-2.07375 37.711875 -3.0225 37.36125 -4 37 C-4.33 36.01 -4.66 35.02 -5 34 C-5.886875 33.896875 -6.77375 33.79375 -7.6875 33.6875 C-13.54115426 32.47259062 -17.05091327 29.40041093 -21 25 C-21 24.34 -21 23.68 -21 23 C-21.99 23 -22.98 23 -24 23 C-24 21.35 -24 19.7 -24 18 C-22.35 17.67 -20.7 17.34 -19 17 C-19 16.34 -19 15.68 -19 15 C-17.948125 14.5875 -16.89625 14.175 -15.8125 13.75 C-12.40364404 12.30779171 -9.85352072 10.36434574 -7 8 C-6.34 8 -5.68 8 -5 8 C-5 7.34 -5 6.68 -5 6 C-4.34 6 -3.68 6 -3 6 C-2.690625 5.38125 -2.38125 4.7625 -2.0625 4.125 C-1.375 2.75 -0.6875 1.375 0 0 Z " fill="#FDFDF5" transform="translate(292,311)"/>
<path d="M0 0 C6.27 0 12.54 0 19 0 C19 0.66 19 1.32 19 2 C20.32 2.33 21.64 2.66 23 3 C23 3.66 23 4.32 23 5 C23.7425 5.12375 24.485 5.2475 25.25 5.375 C29.78826173 6.40642312 31.37123891 7.09075069 34.1015625 11.0390625 C36.45400487 15.28403032 36.49949175 18.98794342 36.3125 23.75 C36.29799805 24.88115234 36.29799805 24.88115234 36.28320312 26.03515625 C36.21741779 29.25577747 36.02377447 31.9286766 35 35 C34.34 35 33.68 35 33 35 C33 35.99 33 36.98 33 38 C30.525 38.495 30.525 38.495 28 39 C27.67 39.99 27.34 40.98 27 42 C26.34 42 25.68 42 25 42 C25 42.66 25 43.32 25 44 C19.46711458 47.84228154 15.1640787 48.13811827 8.5 48.125 C7.1903125 48.12757813 5.880625 48.13015625 4.53125 48.1328125 C1.77764076 48.02924755 -0.40352847 47.83458014 -3 47 C-3 46.34 -3 45.68 -3 45 C-3.721875 44.938125 -4.44375 44.87625 -5.1875 44.8125 C-8.88399074 43.7446249 -10.53138868 41.89180184 -13 39 C-13 38.34 -13 37.68 -13 37 C-13.99 37 -14.98 37 -16 37 C-16 36.34 -16 35.68 -16 35 C-16.66 35 -17.32 35 -18 35 C-19.25433458 31.23699626 -19.10695422 27.72789091 -19.0625 23.8125 C-19.05798828 23.06291016 -19.05347656 22.31332031 -19.04882812 21.54101562 C-19.03706354 19.69397617 -19.01912865 17.84697787 -19 16 C-18.34 16 -17.68 16 -17 16 C-16.67 14.35 -16.34 12.7 -16 11 C-15.34 11 -14.68 11 -14 11 C-13.67 9.68 -13.34 8.36 -13 7 C-11.68 7 -10.36 7 -9 7 C-9 6.34 -9 5.68 -9 5 C-8.01 5 -7.02 5 -6 5 C-5.67 4.01 -5.34 3.02 -5 2 C-3.35 2 -1.7 2 0 2 C0 1.34 0 0.68 0 0 Z " fill="#FDFDF5" transform="translate(240,267)"/>
<path d="M0 0 C0.495 1.485 0.495 1.485 1 3 C1.99 3 2.98 3 4 3 C4 3.99 4 4.98 4 6 C4.53625 6.2475 5.0725 6.495 5.625 6.75 C10.35417063 9.23903717 13.86676482 11.67315141 17 16 C18.485 16.495 18.485 16.495 20 17 C20 17.99 20 18.98 20 20 C22.64 20 25.28 20 28 20 C28 20.99 28 21.98 28 23 C29.65 23 31.3 23 33 23 C33.495 24.98 33.495 24.98 34 27 C35.10408203 27.09087891 35.10408203 27.09087891 36.23046875 27.18359375 C37.20628906 27.26738281 38.18210937 27.35117187 39.1875 27.4375 C40.15042969 27.51871094 41.11335938 27.59992188 42.10546875 27.68359375 C44.78649602 27.97666151 47.3662986 28.42703754 50 29 C50 30.32 50 31.64 50 33 C17.33 33 -15.34 33 -49 33 C-48 29 -48 29 -47 28 C-45.48071962 27.92820036 -43.95832518 27.91607993 -42.4375 27.9375 C-41.61121094 27.94652344 -40.78492188 27.95554687 -39.93359375 27.96484375 C-38.97646484 27.98224609 -38.97646484 27.98224609 -38 28 C-38 27.34 -38 26.68 -38 26 C-37.195625 25.87625 -36.39125 25.7525 -35.5625 25.625 C-34.716875 25.41875 -33.87125 25.2125 -33 25 C-32.67 24.34 -32.34 23.68 -32 23 C-30.35 23 -28.7 23 -27 23 C-27 22.34 -27 21.68 -27 21 C-19.57142857 17.71428571 -19.57142857 17.71428571 -16 17 C-16 16.34 -16 15.68 -16 15 C-14.1015625 13.2734375 -14.1015625 13.2734375 -11.625 11.375 C-10.40683594 10.42753906 -10.40683594 10.42753906 -9.1640625 9.4609375 C-7 8 -7 8 -5 8 C-4.9175 7.236875 -4.835 6.47375 -4.75 5.6875 C-3.85384206 2.47626739 -2.78388975 1.70625501 0 0 Z " fill="#FDFDEF" transform="translate(248,341)"/>
<path d="M0 0 C27.39 0 54.78 0 83 0 C83 1.65 83 3.3 83 5 C82.34 5 81.68 5 81 5 C80.67 6.98 80.34 8.96 80 11 C79.34 11 78.68 11 78 11 C77.67 12.98 77.34 14.96 77 17 C53.57 17 30.14 17 6 17 C5.67 15.02 5.34 13.04 5 11 C4.34 11 3.68 11 3 11 C2.67 9.02 2.34 7.04 2 5 C1.34 5 0.68 5 0 5 C0 3.35 0 1.7 0 0 Z " fill="#FEFDEE" transform="translate(207,391)"/>
<path d="M0 0 C4.69588905 -0.04613865 9.3909782 -0.08589464 14.08691406 -0.10986328 C15.68134235 -0.11986475 17.27575257 -0.13347031 18.87011719 -0.15087891 C21.17387376 -0.17538695 23.47738595 -0.18654176 25.78125 -0.1953125 C26.48366821 -0.20563507 27.18608643 -0.21595764 27.90979004 -0.22659302 C33.46648172 -0.22782725 39.07068342 0.35225943 44 3.125 C45.68447614 6.28339276 45.53250411 9.51319229 45 13 C43.0730889 16.04249121 40.35857827 16.9177821 37 18 C34.10427801 18.16585708 31.31009798 18.23341501 28.41796875 18.1953125 C27.60378983 18.1924826 26.7896109 18.18965271 25.95075989 18.18673706 C23.362854 18.17558584 20.77530042 18.15049083 18.1875 18.125 C16.42773939 18.11496365 14.66797333 18.10583894 12.90820312 18.09765625 C8.60522543 18.07736875 4.30300482 18.03821119 0 18 C0 12.06 0 6.12 0 0 Z " fill="#FEFEFD" transform="translate(858,305)"/>
<path d="M0 0 C13.53 0 27.06 0 41 0 C40.34 1.32 39.68 2.64 39 4 C38.34 4 37.68 4 37 4 C37 4.66 37 5.32 37 6 C35.625 7.625 35.625 7.625 34 9 C33.34 9 32.68 9 32 9 C32 9.66 32 10.32 32 11 C31.01 11 30.02 11 29 11 C29 11.99 29 12.98 29 14 C27.35 14.33 25.7 14.66 24 15 C24 15.99 24 16.98 24 18 C23.01 18 22.02 18 21 18 C20.67 18.66 20.34 19.32 20 20 C20 19.34 20 18.68 20 18 C19.01 18 18.02 18 17 18 C17 17.01 17 16.02 17 15 C15.35 14.67 13.7 14.34 12 14 C12 13.01 12 12.02 12 11 C11.01 11 10.02 11 9 11 C9 10.34 9 9.68 9 9 C8.34 9 7.68 9 7 9 C3.77388399 6.09649559 1.96300481 3.92600963 0 0 Z " fill="#FCFDF6" transform="translate(228,426)"/>
<path d="M0 0 C0.66 0 1.32 0 2 0 C4.17357444 3.78774694 6.3376772 7.58082029 8.5 11.375 C9.12003906 12.45523437 9.74007813 13.53546875 10.37890625 14.6484375 C10.96542969 15.6796875 11.55195313 16.7109375 12.15625 17.7734375 C12.70087891 18.72653809 13.24550781 19.67963867 13.80664062 20.66162109 C15 23 15 23 15 25 C5.43 25 -4.14 25 -14 25 C-7.09797297 12.34628378 -7.09797297 12.34628378 -3.625 6.3125 C-3.27050781 5.69439453 -2.91601562 5.07628906 -2.55078125 4.43945312 C-1.70155349 2.95904256 -0.85094038 1.47942681 0 0 Z " fill="#FEFEF9" transform="translate(467,309)"/>
<path d="M0 0 C3.8585881 1.28619603 4.19045107 2.59076465 6.13671875 6.09375 C6.71357422 7.12371094 7.29042969 8.15367187 7.88476562 9.21484375 C8.77711914 10.84099609 8.77711914 10.84099609 9.6875 12.5 C10.29400391 13.58410156 10.90050781 14.66820312 11.52539062 15.78515625 C16 23.82837985 16 23.82837985 16 25 C6.43 25 -3.14 25 -13 25 C-11.60240836 20.80722509 -10.55167424 17.91330743 -8.3984375 14.2578125 C-7.66367187 13.00097656 -7.66367187 13.00097656 -6.9140625 11.71875 C-6.40617188 10.8628125 -5.89828125 10.006875 -5.375 9.125 C-4.859375 8.24585938 -4.34375 7.36671875 -3.8125 6.4609375 C-2.54664427 4.3042944 -1.27571593 2.15082012 0 0 Z " fill="#FFFEFA" transform="translate(1017,309)"/>
<path d="M0 0 C0.98613281 0.00322266 1.97226562 0.00644531 2.98828125 0.00976562 C4.02082031 0.01814453 5.05335938 0.02652344 6.1171875 0.03515625 C7.67759766 0.04192383 7.67759766 0.04192383 9.26953125 0.04882812 C11.84380712 0.06063673 14.41796896 0.0771055 16.9921875 0.09765625 C16.9921875 0.42765625 16.9921875 0.75765625 16.9921875 1.09765625 C10.3921875 1.09765625 3.7921875 1.09765625 -3.0078125 1.09765625 C-3.0078125 1.75765625 -3.0078125 2.41765625 -3.0078125 3.09765625 C-4.3278125 3.09765625 -5.6478125 3.09765625 -7.0078125 3.09765625 C-7.0078125 2.43765625 -7.0078125 1.77765625 -7.0078125 1.09765625 C-4.50284246 -0.15482877 -2.79927976 -0.01608781 0 0 Z " fill="#FDFBD4" transform="translate(292.0078125,213.90234375)"/>
<path d="M0 0 C4.71403788 0.47939368 8.66579301 0.96834048 13 3 C13 3.66 13 4.32 13 5 C10.36 4.67 7.72 4.34 5 4 C5 3.34 5 2.68 5 2 C3.35 2 1.7 2 0 2 C0 1.34 0 0.68 0 0 Z " fill="#F9F26F" transform="translate(299,292)"/>
<path d="M0 0 C0.33 1.32 0.66 2.64 1 4 C1.99 4 2.98 4 4 4 C4 5.98 4 7.96 4 10 C3.01 10.495 3.01 10.495 2 11 C1.01 10.34 0.02 9.68 -1 9 C0.32 8.67 1.64 8.34 3 8 C3 7.01 3 6.02 3 5 C2.01 5 1.02 5 0 5 C0 3.35 0 1.7 0 0 Z " fill="#FBEF48" transform="translate(213,251)"/>
<path d="M0 0 C1.98 0 3.96 0 6 0 C6 0.66 6 1.32 6 2 C6.99 2 7.98 2 9 2 C9 2.66 9 3.32 9 4 C7.35 4 5.7 4 4 4 C3.67 3.01 3.34 2.02 3 1 C2.01 0.67 1.02 0.34 0 0 Z " fill="#F9FBE9" transform="translate(287,369)"/>
<path d="M0 0 C1.45947705 0.06006078 2.91779272 0.1488689 4.375 0.25 C5.59316406 0.31960938 5.59316406 0.31960938 6.8359375 0.390625 C7.55007813 0.59171875 8.26421875 0.7928125 9 1 C9.66 2.32 10.32 3.64 11 5 C7.37 4.01 3.74 3.02 0 2 C0 1.34 0 0.68 0 0 Z " fill="#FCF6A1" transform="translate(384,319)"/>
<path d="M0 0 C1.32 0 2.64 0 4 0 C2.79618552 2.49361571 1.54571278 4.68143083 0 7 C-0.66 6.67 -1.32 6.34 -2 6 C-1.34 4.02 -0.68 2.04 0 0 Z " fill="#FCEE41" transform="translate(175,221)"/>
</svg>
